<svg width="13" height="14" viewBox="0 0 13 14" fill="none" xmlns="http://www.w3.org/2000/svg">
<g clip-path="url(#clip0_172_2528)">
<path fill-rule="evenodd" clip-rule="evenodd" d="M0 7.32447C0 5.56864 0.684819 3.88472 1.90381 2.64316C3.12279 1.4016 4.77609 0.704102 6.5 0.704102C8.22391 0.704102 9.87721 1.4016 11.0962 2.64316C12.3152 3.88472 13 5.56864 13 7.32447C13 9.0803 12.3152 10.7642 11.0962 12.0058C9.87721 13.2473 8.22391 13.9448 6.5 13.9448C4.77609 13.9448 3.12279 13.2473 1.90381 12.0058C0.684819 10.7642 0 9.0803 0 7.32447H0ZM6.12907 10.158L9.87133 5.39309L9.19533 4.84227L6.00427 8.90365L3.744 6.98551L3.18933 7.66343L6.12907 10.1589V10.158Z" fill="#011C2A"/>
</g>
<defs>
<clipPath id="clip0_172_2528">
<rect width="13" height="13.2407" fill="white" transform="translate(0 0.704102)"/>
</clipPath>
</defs>
</svg>
