<svg width="41" height="41" viewBox="0 0 41 41" fill="none" xmlns="http://www.w3.org/2000/svg">
<rect x="3.02539" y="3.24805" width="34.875" height="34.875" rx="17.4375" stroke="#181818"/>
<path d="M25.977 16.122C25.977 16.7292 25.4848 17.2213 24.8777 17.2213C24.2706 17.2213 23.7785 16.7292 23.7785 16.122C23.7785 15.5149 24.2706 15.0228 24.8777 15.0228C25.4848 15.0228 25.977 15.5149 25.977 16.122Z" fill="#181818"/>
<path fill-rule="evenodd" clip-rule="evenodd" d="M20.8471 23.817C22.8708 23.817 24.5113 22.1764 24.5113 20.1527C24.5113 18.129 22.8708 16.4885 20.8471 16.4885C18.8233 16.4885 17.1828 18.129 17.1828 20.1527C17.1828 22.1764 18.8233 23.817 20.8471 23.817ZM20.8471 22.3513C22.0613 22.3513 23.0456 21.3669 23.0456 20.1527C23.0456 18.9385 22.0613 17.9542 20.8471 17.9542C19.6328 17.9542 18.6485 18.9385 18.6485 20.1527C18.6485 21.3669 19.6328 22.3513 20.8471 22.3513Z" fill="#181818"/>
<path fill-rule="evenodd" clip-rule="evenodd" d="M13.5186 19.8596C13.5186 17.397 13.5186 16.1657 13.9978 15.2251C14.4194 14.3977 15.092 13.725 15.9194 13.3035C16.86 12.8242 18.0913 12.8242 20.5539 12.8242H21.1402C23.6028 12.8242 24.8341 12.8242 25.7747 13.3035C26.6021 13.725 27.2747 14.3977 27.6963 15.2251C28.1756 16.1657 28.1756 17.397 28.1756 19.8596V20.4459C28.1756 22.9085 28.1756 24.1398 27.6963 25.0804C27.2747 25.9077 26.6021 26.5804 25.7747 27.002C24.8341 27.4812 23.6028 27.4812 21.1402 27.4812H20.5539C18.0913 27.4812 16.86 27.4812 15.9194 27.002C15.092 26.5804 14.4194 25.9077 13.9978 25.0804C13.5186 24.1398 13.5186 22.9085 13.5186 20.4459V19.8596ZM20.5539 14.2899H21.1402C22.3957 14.2899 23.2492 14.2911 23.9088 14.345C24.5514 14.3975 24.8801 14.4926 25.1093 14.6094C25.6609 14.8905 26.1093 15.3389 26.3904 15.8905C26.5072 16.1197 26.6023 16.4483 26.6548 17.0909C26.7087 17.7506 26.7099 18.6041 26.7099 19.8596V20.4459C26.7099 21.7014 26.7087 22.5548 26.6548 23.2145C26.6023 23.8571 26.5072 24.1857 26.3904 24.415C26.1093 24.9665 25.6609 25.415 25.1093 25.696C24.8801 25.8128 24.5514 25.908 23.9088 25.9605C23.2492 26.0144 22.3957 26.0155 21.1402 26.0155H20.5539C19.2984 26.0155 18.445 26.0144 17.7853 25.9605C17.1427 25.908 16.8141 25.8128 16.5848 25.696C16.0332 25.415 15.5848 24.9665 15.3038 24.415C15.187 24.1857 15.0918 23.8571 15.0393 23.2145C14.9854 22.5548 14.9843 21.7014 14.9843 20.4459V19.8596C14.9843 18.6041 14.9854 17.7506 15.0393 17.0909C15.0918 16.4483 15.187 16.1197 15.3038 15.8905C15.5848 15.3389 16.0332 14.8905 16.5848 14.6094C16.8141 14.4926 17.1427 14.3975 17.7853 14.345C18.445 14.2911 19.2984 14.2899 20.5539 14.2899Z" fill="#181818"/>
</svg>
