<svg width="32" height="32" viewBox="0 0 32 32" fill="none" xmlns="http://www.w3.org/2000/svg">
<circle cx="16" cy="16" r="16" fill="#FFD20B"/>
<circle cx="16" cy="16" r="16" fill="#FFD20B"/>
<path fill-rule="evenodd" clip-rule="evenodd" d="M11.084 15.0868C10.784 15.0851 10.5395 15.327 10.5378 15.627C10.5362 15.9269 10.778 16.1714 11.078 16.1731L15.4226 16.1969L15.3988 20.542C15.3971 20.8419 15.639 21.0864 15.939 21.0881C16.2389 21.0897 16.4834 20.8479 16.4851 20.5479L16.5089 16.2029L20.8546 16.2267C21.1546 16.2284 21.3991 15.9865 21.4007 15.6866C21.4024 15.3866 21.1605 15.1421 20.8606 15.1404L16.5149 15.1166L16.5387 10.7713C16.5404 10.4713 16.2985 10.2268 15.9986 10.2252C15.6986 10.2235 15.4541 10.4654 15.4524 10.7653L15.4286 15.1106L11.084 15.0868Z" fill="#181818"/>
</svg>
