<svg width="41" height="41" viewBox="0 0 41 41" fill="none" xmlns="http://www.w3.org/2000/svg">
<rect x="2.67871" y="3.24805" width="34.875" height="34.875" rx="17.4375" stroke="#181818"/>
<path d="M18.06 26.5324C16.2608 26.5324 14.5836 26.0091 13.1719 25.1061C14.3704 25.1837 16.4856 24.998 17.8013 23.743C15.8221 23.6522 14.9296 22.1343 14.8131 21.4856C14.9813 21.5505 15.7833 21.6283 16.2361 21.4467C13.9594 20.8758 13.6101 18.8779 13.6877 18.2681C14.1146 18.5665 14.839 18.6703 15.1236 18.6443C13.0021 17.1264 13.7653 14.843 14.1405 14.35C15.6629 16.4592 17.9446 17.6438 20.7673 17.7097C20.7141 17.4763 20.686 17.2333 20.686 16.9837C20.686 15.1924 22.1338 13.7402 23.9199 13.7402C24.8531 13.7402 25.694 14.1367 26.2842 14.7707C26.9078 14.6246 27.8463 14.2825 28.3051 13.9867C28.0739 14.8171 27.3539 15.5097 26.9184 15.7664C26.9148 15.7577 26.922 15.7752 26.9184 15.7664C27.3009 15.7086 28.336 15.5097 28.7449 15.2322C28.5427 15.6987 27.7794 16.4743 27.153 16.9085C27.2695 22.0485 23.3369 26.5324 18.06 26.5324Z" fill="#181818"/>
</svg>
