<svg width="343" height="695" viewBox="0 0 343 695" fill="none" xmlns="http://www.w3.org/2000/svg">
<g clip-path="url(#clip0_337_1172)">
<rect width="343" height="695" rx="60" fill="#F67676"/>
<path d="M-29.3735 -70.5209C-13.8679 -75.5814 2.9127 -75.1091 18.1091 -69.1843C33.3055 -63.2595 45.9774 -52.2488 53.9657 -38.0284C61.9541 -23.808 64.7645 -7.25766 61.9183 8.80261C59.072 24.8629 50.7451 39.4394 38.3564 50.0485C25.9676 60.6576 10.2836 66.6429 -6.02335 66.9845C-22.3303 67.3262 -38.2512 62.003 -51.0734 51.9221C-63.8956 41.8411 -72.8257 27.6262 -76.3421 11.6992C-79.8585 -4.2278 -77.7437 -20.8813 -70.3579 -35.4238L-62.1699 -31.2653C-68.5935 -18.6172 -70.4329 -4.133 -67.3745 9.71928C-64.3162 23.5716 -56.5494 35.9349 -45.3974 44.7026C-34.2455 53.4704 -20.3985 58.1001 -6.2157 57.803C7.96707 57.5059 21.608 52.3003 32.383 43.0731C43.1579 33.846 50.4001 21.1683 52.8756 7.20004C55.3512 -6.76818 52.9068 -21.1626 45.959 -33.5306C39.0113 -45.8987 27.9901 -55.475 14.7732 -60.6281C1.55631 -65.7811 -13.0384 -66.1919 -26.5242 -61.7905L-29.3735 -70.5209Z" fill="#99CF58"/>
<circle cx="383" cy="734" r="111" fill="#99CF58"/>
</g>
<defs>
<clipPath id="clip0_337_1172">
<rect width="343" height="695" rx="60" fill="white"/>
</clipPath>
</defs>
</svg>
