<svg width="112" height="106" viewBox="0 0 112 106" fill="none" xmlns="http://www.w3.org/2000/svg">
<path d="M-70.7817 -166.116C-40.1003 -176.129 -6.89615 -175.195 23.1733 -163.471C53.2428 -151.747 78.317 -129.96 94.1237 -101.822C109.93 -73.6839 115.492 -40.9354 109.86 -9.15654C104.228 22.6223 87.7509 51.4652 63.2371 72.4577C38.7232 93.4502 7.68886 105.293 -24.5781 105.969C-56.8451 106.645 -88.3482 96.1123 -113.72 76.165C-139.091 56.2176 -156.761 28.09 -163.719 -3.42503C-170.677 -34.9401 -166.493 -67.8928 -151.878 -96.6684L-135.677 -88.4399C-148.387 -63.4127 -152.027 -34.7525 -145.975 -7.34268C-139.924 20.0672 -124.555 44.5307 -102.489 61.8797C-80.4219 79.2287 -53.0225 88.3896 -24.9587 87.8017C3.10506 87.2138 30.0968 76.9133 51.4174 58.6553C72.738 40.3974 87.0684 15.3117 91.9667 -12.3276C96.8651 -39.9668 92.0283 -68.4494 78.2807 -92.9223C64.533 -117.395 42.725 -136.344 16.5725 -146.541C-9.58006 -156.737 -38.459 -157.55 -65.1437 -148.841L-70.7817 -166.116Z" fill="#99CF58"/>
</svg>
